<svg width="64" height="28" viewBox="0 0 64 28" fill="none" xmlns="http://www.w3.org/2000/svg" role="img" aria-label="&#x5C0F;&#x9C7C;&#x79D1;&#x6280;">
  <defs>
    <linearGradient id="xy-night-text" x1="5" y1="5" x2="59" y2="23" gradientUnits="userSpaceOnUse">
      <stop offset="0" stop-color="#E0F2FE"/>
      <stop offset="0.26" stop-color="#67E8F9"/>
      <stop offset="0.58" stop-color="#A78BFA"/>
      <stop offset="0.82" stop-color="#F0ABFC"/>
      <stop offset="1" stop-color="#FDE68A"/>
    </linearGradient>
    <linearGradient id="xy-night-stroke" x1="4" y1="3" x2="60" y2="25" gradientUnits="userSpaceOnUse">
      <stop offset="0" stop-color="#BAE6FD"/>
      <stop offset="0.52" stop-color="#C4B5FD"/>
      <stop offset="1" stop-color="#FDE68A"/>
    </linearGradient>
    <filter id="xy-night-glow" x="-25%" y="-65%" width="150%" height="230%" color-interpolation-filters="sRGB">
      <feDropShadow dx="0" dy="0" stdDeviation="1.25" flood-color="#38BDF8" flood-opacity="0.86"/>
      <feDropShadow dx="0" dy="0" stdDeviation="2.25" flood-color="#C084FC" flood-opacity="0.72"/>
    </filter>
  </defs>
  <rect x="1" y="1" width="62" height="26" rx="7" fill="#020617" fill-opacity="0.52"/>
  <rect x="1" y="1" width="62" height="26" rx="7" stroke="url(#xy-night-stroke)" stroke-opacity="0.9"/>
  <path d="M6.5 21C12.2 11.4 19.6 11.3 25.1 21C29.8 14.1 35.3 13.4 40.8 18.6" stroke="url(#xy-night-stroke)" stroke-width="1.25" stroke-linecap="round" opacity="0.82"/>
  <text
    x="32"
    y="18.55"
    text-anchor="middle"
    font-family="PingFang SC, Microsoft YaHei, Noto Sans CJK SC, sans-serif"
    font-size="14"
    font-weight="800"
    letter-spacing="0"
    fill="url(#xy-night-text)"
    stroke="#0F172A"
    stroke-width="0.38"
    paint-order="stroke fill"
    filter="url(#xy-night-glow)"
  >&#x5C0F;&#x9C7C;&#x79D1;&#x6280;</text>
  <path d="M55.4 4.6L56.2 6.25L58 6.55L56.7 7.82L57.02 9.62L55.4 8.75L53.78 9.62L54.1 7.82L52.8 6.55L54.6 6.25L55.4 4.6Z" fill="#FDE68A"/>
  <circle cx="8.4" cy="7.2" r="1.05" fill="#A5F3FC"/>
  <circle cx="59.4" cy="20.6" r="0.95" fill="#FDA4AF"/>
</svg>
